<svg id="fb_new" data-name="fb new" xmlns="http://www.w3.org/2000/svg" width="28" height="28" viewBox="0 0 28 28">
  <g id="facebook_new" data-name="facebook new">
    <path id="Path_15531" data-name="Path 15531" d="M28,14A14,14,0,1,0,11.813,27.83V18.047H8.258V14h3.555V10.916c0-3.508,2.089-5.447,5.288-5.447a21.531,21.531,0,0,1,3.134.273V9.188H18.468a2.023,2.023,0,0,0-2.28,2.188V14H20.07l-.621,4.047H16.187V27.83A14,14,0,0,0,28,14Z" fill="#1877f2"/>
    <path id="Path_15532" data-name="Path 15532" d="M313.192,212.578l.621-4.047H309.93v-2.625a2.023,2.023,0,0,1,2.28-2.187h1.766v-3.445a21.532,21.532,0,0,0-3.134-.273c-3.2,0-5.288,1.939-5.288,5.447v3.084H302v4.047h3.555v9.784a14.2,14.2,0,0,0,4.375,0v-9.784Z" transform="translate(-293.742 -194.531)" fill="#fff"/>
  </g>
</svg>
