<svg id="Google__G__Logo" xmlns="http://www.w3.org/2000/svg" width="20.55" height="21.318" viewBox="0 0 20.55 21.318">
  <path id="Path_14982" data-name="Path 14982" d="M282.168,225.266a12.744,12.744,0,0,0-.181-2.166H272.1v4.1h5.662a4.94,4.94,0,0,1-2.1,3.239v2.663h3.378A10.5,10.5,0,0,0,282.168,225.266Z" transform="translate(-261.618 -214.361)" fill="#4285f4"/>
  <path id="Path_14983" data-name="Path 14983" d="M38.267,332.916a9.937,9.937,0,0,0,6.948-2.573l-3.378-2.663a6.2,6.2,0,0,1-3.567,1.018,6.288,6.288,0,0,1-5.885-4.4H28.9v2.745A10.466,10.466,0,0,0,38.267,332.916Z" transform="translate(-27.785 -311.598)" fill="#34a853"/>
  <path id="Path_14984" data-name="Path 14984" d="M4.547,156.826a6.486,6.486,0,0,1,0-4.081V150H1.065a10.829,10.829,0,0,0,0,9.572Z" transform="translate(0.05 -144.124)" fill="#fbbc04"/>
  <path id="Path_14985" data-name="Path 14985" d="M38.267,4.2a5.645,5.645,0,0,1,4.021,1.6h0l2.993-3.043A9.983,9.983,0,0,0,38.267-.018,10.463,10.463,0,0,0,28.9,5.857L32.382,8.6A6.282,6.282,0,0,1,38.267,4.2Z" transform="translate(-27.785 0.018)" fill="#ea4335"/>
</svg>
